<?xml version="1.0" standalone="no"?>
<!DOCTYPE svg PUBLIC "-//W3C//DTD SVG 20010904//EN"
 "http://www.w3.org/TR/2001/REC-SVG-20010904/DTD/svg10.dtd">
<svg version="1.0" xmlns="http://www.w3.org/2000/svg"
 width="1024.000000pt" height="1024.000000pt" viewBox="0 0 1024.000000 1024.000000"
 preserveAspectRatio="xMidYMid meet">

<g transform="translate(0.000000,1024.000000) scale(0.100000,-0.100000)"
fill="#000000" stroke="none">
<path d="M0 5120 l0 -5120 5120 0 5120 0 0 5120 0 5120 -5120 0 -5120 0 0
-5120z m5482 3179 c963 -88 1934 -710 2461 -1574 209 -345 365 -805 424 -1255
21 -166 25 -617 5 -785 -115 -995 -631 -1825 -1468 -2363 -376 -241 -739 -384
-1184 -466 -366 -67 -811 -60 -1190 19 -651 136 -1274 485 -1717 961 -104 112
-187 210 -254 300 -446 603 -670 1403 -605 2163 20 233 42 367 95 579 168 666
503 1204 1036 1661 204 176 435 328 685 452 528 261 1101 364 1712 308z"/>
<path d="M4880 7836 c-611 -71 -1163 -332 -1608 -760 -394 -380 -622 -779
-767 -1341 -110 -430 -109 -918 4 -1375 200 -810 728 -1457 1481 -1819 315
-150 638 -240 986 -272 277 -25 656 17 966 107 601 175 1162 588 1504 1109
230 350 387 775 444 1200 18 135 24 489 11 631 -20 216 -87 512 -166 729 -283
781 -951 1413 -1776 1680 -145 47 -312 82 -514 110 -97 13 -455 14 -565 1z
m402 -1413 l3 -1018 149 370 c82 204 188 465 237 580 48 116 137 332 198 480
117 289 174 421 184 431 18 19 397 -213 397 -244 0 -9 -119 -314 -265 -677
-332 -825 -435 -1087 -435 -1107 0 -9 63 -180 141 -380 77 -199 165 -428 196
-508 30 -80 112 -293 183 -475 132 -339 262 -683 274 -722 7 -20 -6 -32 -115
-103 -124 -81 -284 -169 -292 -160 -7 9 -490 1243 -659 1685 -41 107 -139 377
-186 510 -7 21 -11 -325 -11 -1197 l-1 -1228 -100 0 c-119 0 -357 34 -377 54
-8 7 -12 4403 -4 4571 l6 140 70 6 c39 3 145 6 237 7 l168 2 2 -1017z m-932
-1374 l0 -2240 -22 7 c-87 27 -415 212 -445 252 -10 12 -13 269 -13 1201 l-1
1186 -30 -65 c-17 -36 -125 -301 -241 -590 -115 -288 -218 -540 -228 -559
l-18 -35 -21 42 c-21 41 -90 214 -283 707 -139 355 -178 466 -178 502 0 79
192 727 209 707 10 -12 54 -123 139 -359 39 -104 84 -228 102 -274 l32 -84 68
179 c120 318 339 844 416 997 l34 68 0 170 0 169 101 67 c108 70 339 193 364
193 13 0 15 -246 15 -2241z m2950 995 c84 -185 142 -413 161 -629 11 -124 10
-136 -14 -270 -42 -226 -228 -867 -379 -1305 -56 -163 -145 -360 -163 -360 -6
0 -40 75 -74 168 -73 191 -247 671 -296 812 -18 52 -87 244 -153 426 -66 181
-127 355 -136 385 l-16 55 103 220 c57 120 119 254 137 297 19 43 38 73 42 69
12 -12 151 -395 263 -725 52 -154 98 -284 102 -290 3 -5 34 82 69 194 34 112
117 384 184 604 68 220 124 403 127 408 8 14 14 6 43 -59z"/>
</g>
</svg>
